<svg aria-roledescription="flowchart-v2" role="graphics-document document" viewBox="-8 -8 2561 222" style="max-width: 2561px;" xmlns="http://www.w3.org/2000/svg" width="2561" id="svg" height="222"><style>#svg{font-family:"trebuchet ms",verdana,arial,sans-serif;font-size:16px;fill:#333;}#svg .error-icon{fill:#552222;}#svg .error-text{fill:#552222;stroke:#552222;}#svg .edge-thickness-normal{stroke-width:2px;}#svg .edge-thickness-thick{stroke-width:3.5px;}#svg .edge-pattern-solid{stroke-dasharray:0;}#svg .edge-pattern-dashed{stroke-dasharray:3;}#svg .edge-pattern-dotted{stroke-dasharray:2;}#svg .marker{fill:#333333;stroke:#333333;}#svg .marker.cross{stroke:#333333;}#svg svg{font-family:"trebuchet ms",verdana,arial,sans-serif;font-size:16px;}#svg .label{font-family:"trebuchet ms",verdana,arial,sans-serif;color:#333;}#svg .cluster-label text{fill:#333;}#svg .cluster-label span,#svg p{color:#333;}#svg .label text,#svg span,#svg p{fill:#333;color:#333;}#svg .node rect,#svg .node circle,#svg .node ellipse,#svg .node polygon,#svg .node path{fill:#ECECFF;stroke:#9370DB;stroke-width:1px;}#svg .flowchart-label text{text-anchor:middle;}#svg .node .katex path{fill:#000;stroke:#000;stroke-width:1px;}#svg .node .label{text-align:center;}#svg .node.clickable{cursor:pointer;}#svg .arrowheadPath{fill:#333333;}#svg .edgePath .path{stroke:#333333;stroke-width:2.0px;}#svg .flowchart-link{stroke:#333333;fill:none;}#svg .edgeLabel{background-color:#e8e8e8;text-align:center;}#svg .edgeLabel rect{opacity:0.5;background-color:#e8e8e8;fill:#e8e8e8;}#svg .labelBkg{background-color:rgba(232, 232, 232, 0.5);}#svg .cluster rect{fill:#ffffde;stroke:#aaaa33;stroke-width:1px;}#svg .cluster text{fill:#333;}#svg .cluster span,#svg p{color:#333;}#svg div.mermaidTooltip{position:absolute;text-align:center;max-width:200px;padding:2px;font-family:"trebuchet ms",verdana,arial,sans-serif;font-size:12px;background:hsl(80, 100%, 96.2745098039%);border:1px solid #aaaa33;border-radius:2px;pointer-events:none;z-index:100;}#svg .flowchartTitleText{text-anchor:middle;font-size:18px;fill:#333;}#svg .today{display:none;}#svg .label foreignObject{overflow:visible;}#svg :root{--mermaid-font-family:"trebuchet ms",verdana,arial,sans-serif;}</style><g><marker orient="auto" markerHeight="12" markerWidth="12" markerUnits="userSpaceOnUse" refY="5" refX="6" viewBox="0 0 10 10" class="marker flowchart" id="svg_flowchart-pointEnd"><path style="stroke-width: 1; stroke-dasharray: 1, 0;" class="arrowMarkerPath" d="M 0 0 L 10 5 L 0 10 z"></path></marker><marker orient="auto" markerHeight="12" markerWidth="12" markerUnits="userSpaceOnUse" refY="5" refX="4.5" viewBox="0 0 10 10" class="marker flowchart" id="svg_flowchart-pointStart"><path style="stroke-width: 1; stroke-dasharray: 1, 0;" class="arrowMarkerPath" d="M 0 5 L 10 10 L 10 0 z"></path></marker><marker orient="auto" markerHeight="11" markerWidth="11" markerUnits="userSpaceOnUse" refY="5" refX="11" viewBox="0 0 10 10" class="marker flowchart" id="svg_flowchart-circleEnd"><circle style="stroke-width: 1; stroke-dasharray: 1, 0;" class="arrowMarkerPath" r="5" cy="5" cx="5"></circle></marker><marker orient="auto" markerHeight="11" markerWidth="11" markerUnits="userSpaceOnUse" refY="5" refX="-1" viewBox="0 0 10 10" class="marker flowchart" id="svg_flowchart-circleStart"><circle style="stroke-width: 1; stroke-dasharray: 1, 0;" class="arrowMarkerPath" r="5" cy="5" cx="5"></circle></marker><marker orient="auto" markerHeight="11" markerWidth="11" markerUnits="userSpaceOnUse" refY="5.2" refX="12" viewBox="0 0 11 11" class="marker cross flowchart" id="svg_flowchart-crossEnd"><path style="stroke-width: 2; stroke-dasharray: 1, 0;" class="arrowMarkerPath" d="M 1,1 l 9,9 M 10,1 l -9,9"></path></marker><marker orient="auto" markerHeight="11" markerWidth="11" markerUnits="userSpaceOnUse" refY="5.2" refX="-1" viewBox="0 0 11 11" class="marker cross flowchart" id="svg_flowchart-crossStart"><path style="stroke-width: 2; stroke-dasharray: 1, 0;" class="arrowMarkerPath" d="M 1,1 l 9,9 M 10,1 l -9,9"></path></marker><g class="root"><g class="clusters"></g><g class="edgePaths"><path marker-end="url(#svg_flowchart-pointEnd)" style="fill:none;" class="edge-thickness-normal edge-pattern-solid flowchart-link LS-A LE-B" id="L-A-B-0" d="M1101.25,19.39L939.667,25.992C778.083,32.593,454.917,45.797,293.333,55.682C131.75,65.567,131.75,72.133,131.75,75.417L131.75,78.7"></path><path marker-end="url(#svg_flowchart-pointEnd)" style="fill:none;" class="edge-thickness-normal edge-pattern-solid flowchart-link LS-A LE-C" id="L-A-C-0" d="M1101.25,20.475L993.167,26.896C885.083,33.317,668.917,46.158,560.833,55.863C452.75,65.567,452.75,72.133,452.75,75.417L452.75,78.7"></path><path marker-end="url(#svg_flowchart-pointEnd)" style="fill:none;" class="edge-thickness-normal edge-pattern-solid flowchart-link LS-A LE-D" id="L-A-D-0" d="M1101.25,23.089L1043.75,29.074C986.25,35.059,871.25,47.03,813.75,56.298C756.25,65.567,756.25,72.133,756.25,75.417L756.25,78.7"></path><path marker-end="url(#svg_flowchart-pointEnd)" style="fill:none;" class="edge-thickness-normal edge-pattern-solid flowchart-link LS-A LE-E" id="L-A-E-0" d="M1159.75,34L1159.75,38.167C1159.75,42.333,1159.75,50.667,1159.75,58.117C1159.75,65.567,1159.75,72.133,1159.75,75.417L1159.75,78.7"></path><path marker-end="url(#svg_flowchart-pointEnd)" style="fill:none;" class="edge-thickness-normal edge-pattern-solid flowchart-link LS-A LE-F" id="L-A-F-0" d="M1218.25,22.344L1285.125,28.454C1352,34.563,1485.75,46.781,1552.625,56.174C1619.5,65.567,1619.5,72.133,1619.5,75.417L1619.5,78.7"></path><path marker-end="url(#svg_flowchart-pointEnd)" style="fill:none;" class="edge-thickness-normal edge-pattern-solid flowchart-link LS-A LE-G" id="L-A-G-0" d="M1218.25,19.932L1348.167,26.443C1478.083,32.955,1737.917,45.977,1867.833,55.772C1997.75,65.567,1997.75,72.133,1997.75,75.417L1997.75,78.7"></path><path marker-end="url(#svg_flowchart-pointEnd)" style="fill:none;" class="edge-thickness-normal edge-pattern-solid flowchart-link LS-A LE-H" id="L-A-H-0" d="M1218.25,19.012L1412.042,25.677C1605.833,32.341,1993.417,45.671,2187.208,55.619C2381,65.567,2381,72.133,2381,75.417L2381,78.7"></path><path marker-end="url(#svg_flowchart-pointEnd)" style="fill:none;" class="edge-thickness-normal edge-pattern-solid flowchart-link LS-B LE-B1" id="L-B-B1-0" d="M98.157,120L90.381,124.167C82.605,128.333,67.052,136.667,59.276,144.117C51.5,151.567,51.5,158.133,51.5,161.417L51.5,164.7"></path><path marker-end="url(#svg_flowchart-pointEnd)" style="fill:none;" class="edge-thickness-normal edge-pattern-solid flowchart-link LS-B LE-B2" id="L-B-B2-0" d="M165.343,120L173.119,124.167C180.895,128.333,196.448,136.667,204.224,144.117C212,151.567,212,158.133,212,161.417L212,164.7"></path><path marker-end="url(#svg_flowchart-pointEnd)" style="fill:none;" class="edge-thickness-normal edge-pattern-solid flowchart-link LS-C LE-C1" id="L-C-C1-0" d="M419.157,120L411.381,124.167C403.605,128.333,388.052,136.667,380.276,144.117C372.5,151.567,372.5,158.133,372.5,161.417L372.5,164.7"></path><path marker-end="url(#svg_flowchart-pointEnd)" style="fill:none;" class="edge-thickness-normal edge-pattern-solid flowchart-link LS-C LE-C2" id="L-C-C2-0" d="M486.343,120L494.119,124.167C501.895,128.333,517.448,136.667,525.224,144.117C533,151.567,533,158.133,533,161.417L533,164.7"></path><path marker-end="url(#svg_flowchart-pointEnd)" style="fill:none;" class="edge-thickness-normal edge-pattern-solid flowchart-link LS-D LE-D1" id="L-D-D1-0" d="M726.634,120L719.778,124.167C712.922,128.333,699.211,136.667,692.356,144.117C685.5,151.567,685.5,158.133,685.5,161.417L685.5,164.7"></path><path marker-end="url(#svg_flowchart-pointEnd)" style="fill:none;" class="edge-thickness-normal edge-pattern-solid flowchart-link LS-D LE-D2" id="L-D-D2-0" d="M785.866,120L792.722,124.167C799.578,128.333,813.289,136.667,820.144,144.283C827,151.9,827,158.8,827,162.25L827,165.7"></path><path marker-end="url(#svg_flowchart-pointEnd)" style="fill:none;" class="edge-thickness-normal edge-pattern-solid flowchart-link LS-E LE-E1" id="L-E-E1-0" d="M1120.25,115.04L1105.125,120.034C1090,125.027,1059.75,135.013,1044.625,143.457C1029.5,151.9,1029.5,158.8,1029.5,162.25L1029.5,165.7"></path><path marker-end="url(#svg_flowchart-pointEnd)" style="fill:none;" class="edge-thickness-normal edge-pattern-solid flowchart-link LS-E LE-E2" id="L-E-E2-0" d="M1199.25,115.04L1214.375,120.034C1229.5,125.027,1259.75,135.013,1274.875,143.457C1290,151.9,1290,158.8,1290,162.25L1290,165.7"></path><path marker-end="url(#svg_flowchart-pointEnd)" style="fill:none;" class="edge-thickness-normal edge-pattern-solid flowchart-link LS-F LE-F1" id="L-F-F1-0" d="M1580,119.332L1570.25,123.61C1560.5,127.888,1541,136.444,1531.25,144.005C1521.5,151.567,1521.5,158.133,1521.5,161.417L1521.5,164.7"></path><path marker-end="url(#svg_flowchart-pointEnd)" style="fill:none;" class="edge-thickness-normal edge-pattern-solid flowchart-link LS-F LE-F2" id="L-F-F2-0" d="M1659,119.332L1668.75,123.61C1678.5,127.888,1698,136.444,1707.75,144.005C1717.5,151.567,1717.5,158.133,1717.5,161.417L1717.5,164.7"></path><path marker-end="url(#svg_flowchart-pointEnd)" style="fill:none;" class="edge-thickness-normal edge-pattern-solid flowchart-link LS-G LE-G1" id="L-G-G1-0" d="M1959.134,120L1950.195,124.167C1941.256,128.333,1923.378,136.667,1914.439,144.117C1905.5,151.567,1905.5,158.133,1905.5,161.417L1905.5,164.7"></path><path marker-end="url(#svg_flowchart-pointEnd)" style="fill:none;" class="edge-thickness-normal edge-pattern-solid flowchart-link LS-G LE-G2" id="L-G-G2-0" d="M2036.366,120L2045.305,124.167C2054.244,128.333,2072.122,136.667,2081.061,144.117C2090,151.567,2090,158.133,2090,161.417L2090,164.7"></path><path marker-end="url(#svg_flowchart-pointEnd)" style="fill:none;" class="edge-thickness-normal edge-pattern-solid flowchart-link LS-H LE-H1" id="L-H-H1-0" d="M2341.5,119.51L2331.917,123.759C2322.333,128.007,2303.167,136.503,2293.583,144.035C2284,151.567,2284,158.133,2284,161.417L2284,164.7"></path><path marker-end="url(#svg_flowchart-pointEnd)" style="fill:none;" class="edge-thickness-normal edge-pattern-solid flowchart-link LS-H LE-H2" id="L-H-H2-0" d="M2420.5,119.51L2430.083,123.759C2439.667,128.007,2458.833,136.503,2468.417,144.035C2478,151.567,2478,158.133,2478,161.417L2478,164.7"></path></g><g class="edgeLabels"><g class="edgeLabel"><g transform="translate(0, 0)" class="label"><foreignObject height="0" width="0"><div style="display: inline-block; white-space: nowrap;" xmlns="http://www.w3.org/1999/xhtml"><span class="edgeLabel"></span></div></foreignObject></g></g><g class="edgeLabel"><g transform="translate(0, 0)" class="label"><foreignObject height="0" width="0"><div style="display: inline-block; white-space: nowrap;" xmlns="http://www.w3.org/1999/xhtml"><span class="edgeLabel"></span></div></foreignObject></g></g><g class="edgeLabel"><g transform="translate(0, 0)" class="label"><foreignObject height="0" width="0"><div style="display: inline-block; white-space: nowrap;" xmlns="http://www.w3.org/1999/xhtml"><span class="edgeLabel"></span></div></foreignObject></g></g><g class="edgeLabel"><g transform="translate(0, 0)" class="label"><foreignObject height="0" width="0"><div style="display: inline-block; white-space: nowrap;" xmlns="http://www.w3.org/1999/xhtml"><span class="edgeLabel"></span></div></foreignObject></g></g><g class="edgeLabel"><g transform="translate(0, 0)" class="label"><foreignObject height="0" width="0"><div style="display: inline-block; white-space: nowrap;" xmlns="http://www.w3.org/1999/xhtml"><span class="edgeLabel"></span></div></foreignObject></g></g><g class="edgeLabel"><g transform="translate(0, 0)" class="label"><foreignObject height="0" width="0"><div style="display: inline-block; white-space: nowrap;" xmlns="http://www.w3.org/1999/xhtml"><span class="edgeLabel"></span></div></foreignObject></g></g><g class="edgeLabel"><g transform="translate(0, 0)" class="label"><foreignObject height="0" width="0"><div style="display: inline-block; white-space: nowrap;" xmlns="http://www.w3.org/1999/xhtml"><span class="edgeLabel"></span></div></foreignObject></g></g><g class="edgeLabel"><g transform="translate(0, 0)" class="label"><foreignObject height="0" width="0"><div style="display: inline-block; white-space: nowrap;" xmlns="http://www.w3.org/1999/xhtml"><span class="edgeLabel"></span></div></foreignObject></g></g><g class="edgeLabel"><g transform="translate(0, 0)" class="label"><foreignObject height="0" width="0"><div style="display: inline-block; white-space: nowrap;" xmlns="http://www.w3.org/1999/xhtml"><span class="edgeLabel"></span></div></foreignObject></g></g><g class="edgeLabel"><g transform="translate(0, 0)" class="label"><foreignObject height="0" width="0"><div style="display: inline-block; white-space: nowrap;" xmlns="http://www.w3.org/1999/xhtml"><span class="edgeLabel"></span></div></foreignObject></g></g><g class="edgeLabel"><g transform="translate(0, 0)" class="label"><foreignObject height="0" width="0"><div style="display: inline-block; white-space: nowrap;" xmlns="http://www.w3.org/1999/xhtml"><span class="edgeLabel"></span></div></foreignObject></g></g><g class="edgeLabel"><g transform="translate(0, 0)" class="label"><foreignObject height="0" width="0"><div style="display: inline-block; white-space: nowrap;" xmlns="http://www.w3.org/1999/xhtml"><span class="edgeLabel"></span></div></foreignObject></g></g><g class="edgeLabel"><g transform="translate(0, 0)" class="label"><foreignObject height="0" width="0"><div style="display: inline-block; white-space: nowrap;" xmlns="http://www.w3.org/1999/xhtml"><span class="edgeLabel"></span></div></foreignObject></g></g><g class="edgeLabel"><g transform="translate(0, 0)" class="label"><foreignObject height="0" width="0"><div style="display: inline-block; white-space: nowrap;" xmlns="http://www.w3.org/1999/xhtml"><span class="edgeLabel"></span></div></foreignObject></g></g><g class="edgeLabel"><g transform="translate(0, 0)" class="label"><foreignObject height="0" width="0"><div style="display: inline-block; white-space: nowrap;" xmlns="http://www.w3.org/1999/xhtml"><span class="edgeLabel"></span></div></foreignObject></g></g><g class="edgeLabel"><g transform="translate(0, 0)" class="label"><foreignObject height="0" width="0"><div style="display: inline-block; white-space: nowrap;" xmlns="http://www.w3.org/1999/xhtml"><span class="edgeLabel"></span></div></foreignObject></g></g><g class="edgeLabel"><g transform="translate(0, 0)" class="label"><foreignObject height="0" width="0"><div style="display: inline-block; white-space: nowrap;" xmlns="http://www.w3.org/1999/xhtml"><span class="edgeLabel"></span></div></foreignObject></g></g><g class="edgeLabel"><g transform="translate(0, 0)" class="label"><foreignObject height="0" width="0"><div style="display: inline-block; white-space: nowrap;" xmlns="http://www.w3.org/1999/xhtml"><span class="edgeLabel"></span></div></foreignObject></g></g><g class="edgeLabel"><g transform="translate(0, 0)" class="label"><foreignObject height="0" width="0"><div style="display: inline-block; white-space: nowrap;" xmlns="http://www.w3.org/1999/xhtml"><span class="edgeLabel"></span></div></foreignObject></g></g><g class="edgeLabel"><g transform="translate(0, 0)" class="label"><foreignObject height="0" width="0"><div style="display: inline-block; white-space: nowrap;" xmlns="http://www.w3.org/1999/xhtml"><span class="edgeLabel"></span></div></foreignObject></g></g><g class="edgeLabel"><g transform="translate(0, 0)" class="label"><foreignObject height="0" width="0"><div style="display: inline-block; white-space: nowrap;" xmlns="http://www.w3.org/1999/xhtml"><span class="edgeLabel"></span></div></foreignObject></g></g></g><g class="nodes"><g transform="translate(1159.75, 17)" data-id="A" data-node="true" id="flowchart-A-0" class="node default default flowchart-label"><rect height="34" width="117" y="-17" x="-58.5" ry="0" rx="0" style="" class="basic label-container"></rect><g transform="translate(-51, -9.5)" style="" class="label"><rect></rect><foreignObject height="19" width="102"><div style="display: inline-block; white-space: nowrap;" xmlns="http://www.w3.org/1999/xhtml"><span class="nodeLabel">Vue vs React</span></div></foreignObject></g></g><g transform="translate(131.75, 102)" data-id="B" data-node="true" id="flowchart-B-1" class="node default default flowchart-label"><rect height="36" width="79" y="-18" x="-39.5" ry="5" rx="5" style="" class="basic label-container"></rect><g transform="translate(-32, -10.5)" style="" class="label"><rect></rect><foreignObject height="21" width="64"><div style="display: inline-block; white-space: nowrap;" xmlns="http://www.w3.org/1999/xhtml"><span class="nodeLabel">设计理念</span></div></foreignObject></g></g><g transform="translate(452.75, 102)" data-id="C" data-node="true" id="flowchart-C-3" class="node default default flowchart-label"><rect height="36" width="79" y="-18" x="-39.5" ry="5" rx="5" style="" class="basic label-container"></rect><g transform="translate(-32, -10.5)" style="" class="label"><rect></rect><foreignObject height="21" width="64"><div style="display: inline-block; white-space: nowrap;" xmlns="http://www.w3.org/1999/xhtml"><span class="nodeLabel">数据驱动</span></div></foreignObject></g></g><g transform="translate(756.25, 102)" data-id="D" data-node="true" id="flowchart-D-5" class="node default default flowchart-label"><rect height="36" width="79" y="-18" x="-39.5" ry="5" rx="5" style="" class="basic label-container"></rect><g transform="translate(-32, -10.5)" style="" class="label"><rect></rect><foreignObject height="21" width="64"><div style="display: inline-block; white-space: nowrap;" xmlns="http://www.w3.org/1999/xhtml"><span class="nodeLabel">视图语法</span></div></foreignObject></g></g><g transform="translate(1159.75, 102)" data-id="E" data-node="true" id="flowchart-E-7" class="node default default flowchart-label"><rect height="36" width="79" y="-18" x="-39.5" ry="5" rx="5" style="" class="basic label-container"></rect><g transform="translate(-32, -10.5)" style="" class="label"><rect></rect><foreignObject height="21" width="64"><div style="display: inline-block; white-space: nowrap;" xmlns="http://www.w3.org/1999/xhtml"><span class="nodeLabel">状态管理</span></div></foreignObject></g></g><g transform="translate(1619.5, 102)" data-id="F" data-node="true" id="flowchart-F-9" class="node default default flowchart-label"><rect height="36" width="79" y="-18" x="-39.5" ry="5" rx="5" style="" class="basic label-container"></rect><g transform="translate(-32, -10.5)" style="" class="label"><rect></rect><foreignObject height="21" width="64"><div style="display: inline-block; white-space: nowrap;" xmlns="http://www.w3.org/1999/xhtml"><span class="nodeLabel">性能优化</span></div></foreignObject></g></g><g transform="translate(1997.75, 102)" data-id="G" data-node="true" id="flowchart-G-11" class="node default default flowchart-label"><rect height="36" width="79" y="-18" x="-39.5" ry="5" rx="5" style="" class="basic label-container"></rect><g transform="translate(-32, -10.5)" style="" class="label"><rect></rect><foreignObject height="21" width="64"><div style="display: inline-block; white-space: nowrap;" xmlns="http://www.w3.org/1999/xhtml"><span class="nodeLabel">生态系统</span></div></foreignObject></g></g><g transform="translate(2381, 102)" data-id="H" data-node="true" id="flowchart-H-13" class="node default default flowchart-label"><rect height="36" width="79" y="-18" x="-39.5" ry="5" rx="5" style="" class="basic label-container"></rect><g transform="translate(-32, -10.5)" style="" class="label"><rect></rect><foreignObject height="21" width="64"><div style="display: inline-block; white-space: nowrap;" xmlns="http://www.w3.org/1999/xhtml"><span class="nodeLabel">高阶原理</span></div></foreignObject></g></g><g transform="translate(51.5, 188)" data-id="B1" data-node="true" id="flowchart-B1-15" class="node default default flowchart-label"><rect height="36" width="103" y="-18" x="-51.5" ry="0" rx="0" style="fill:#e3f9ed;" class="basic label-container"></rect><g transform="translate(-44, -10.5)" style="" class="label"><rect></rect><foreignObject height="21" width="88"><div style="display: inline-block; white-space: nowrap;" xmlns="http://www.w3.org/1999/xhtml"><span class="nodeLabel">Vue: 渐进式</span></div></foreignObject></g></g><g transform="translate(212, 188)" data-id="B2" data-node="true" id="flowchart-B2-17" class="node default default flowchart-label"><rect height="36" width="118" y="-18" x="-59" ry="0" rx="0" style="fill:#d4e6ff;" class="basic label-container"></rect><g transform="translate(-51.5, -10.5)" style="" class="label"><rect></rect><foreignObject height="21" width="103"><div style="display: inline-block; white-space: nowrap;" xmlns="http://www.w3.org/1999/xhtml"><span class="nodeLabel">React: 函数式</span></div></foreignObject></g></g><g transform="translate(372.5, 188)" data-id="C1" data-node="true" id="flowchart-C1-19" class="node default default flowchart-label"><rect height="36" width="103" y="-18" x="-51.5" ry="0" rx="0" style="fill:#e3f9ed;" class="basic label-container"></rect><g transform="translate(-44, -10.5)" style="" class="label"><rect></rect><foreignObject height="21" width="88"><div style="display: inline-block; white-space: nowrap;" xmlns="http://www.w3.org/1999/xhtml"><span class="nodeLabel">Vue: 响应式</span></div></foreignObject></g></g><g transform="translate(533, 188)" data-id="C2" data-node="true" id="flowchart-C2-21" class="node default default flowchart-label"><rect height="36" width="118" y="-18" x="-59" ry="0" rx="0" style="fill:#d4e6ff;" class="basic label-container"></rect><g transform="translate(-51.5, -10.5)" style="" class="label"><rect></rect><foreignObject height="21" width="103"><div style="display: inline-block; white-space: nowrap;" xmlns="http://www.w3.org/1999/xhtml"><span class="nodeLabel">React: 重渲染</span></div></foreignObject></g></g><g transform="translate(685.5, 188)" data-id="D1" data-node="true" id="flowchart-D1-23" class="node default default flowchart-label"><rect height="36" width="87" y="-18" x="-43.5" ry="0" rx="0" style="fill:#e3f9ed;" class="basic label-container"></rect><g transform="translate(-36, -10.5)" style="" class="label"><rect></rect><foreignObject height="21" width="72"><div style="display: inline-block; white-space: nowrap;" xmlns="http://www.w3.org/1999/xhtml"><span class="nodeLabel">Vue: 模板</span></div></foreignObject></g></g><g transform="translate(827, 188)" data-id="D2" data-node="true" id="flowchart-D2-25" class="node default default flowchart-label"><rect height="34" width="96" y="-17" x="-48" ry="0" rx="0" style="fill:#d4e6ff;" class="basic label-container"></rect><g transform="translate(-40.5, -9.5)" style="" class="label"><rect></rect><foreignObject height="19" width="81"><div style="display: inline-block; white-space: nowrap;" xmlns="http://www.w3.org/1999/xhtml"><span class="nodeLabel">React: JSX</span></div></foreignObject></g></g><g transform="translate(1029.5, 188)" data-id="E1" data-node="true" id="flowchart-E1-27" class="node default default flowchart-label"><rect height="34" width="209" y="-17" x="-104.5" ry="0" rx="0" style="fill:#e3f9ed;" class="basic label-container"></rect><g transform="translate(-97, -9.5)" style="" class="label"><rect></rect><foreignObject height="19" width="194"><div style="display: inline-block; white-space: nowrap;" xmlns="http://www.w3.org/1999/xhtml"><span class="nodeLabel">Vue: reactive/ref + Pinia</span></div></foreignObject></g></g><g transform="translate(1290, 188)" data-id="E2" data-node="true" id="flowchart-E2-29" class="node default default flowchart-label"><rect height="34" width="212" y="-17" x="-106" ry="0" rx="0" style="fill:#d4e6ff;" class="basic label-container"></rect><g transform="translate(-98.5, -9.5)" style="" class="label"><rect></rect><foreignObject height="19" width="197"><div style="display: inline-block; white-space: nowrap;" xmlns="http://www.w3.org/1999/xhtml"><span class="nodeLabel">React: useState + Redux</span></div></foreignObject></g></g><g transform="translate(1521.5, 188)" data-id="F1" data-node="true" id="flowchart-F1-31" class="node default default flowchart-label"><rect height="36" width="151" y="-18" x="-75.5" ry="0" rx="0" style="fill:#e3f9ed;" class="basic label-container"></rect><g transform="translate(-68, -10.5)" style="" class="label"><rect></rect><foreignObject height="21" width="136"><div style="display: inline-block; white-space: nowrap;" xmlns="http://www.w3.org/1999/xhtml"><span class="nodeLabel">Vue: 自动依赖追踪</span></div></foreignObject></g></g><g transform="translate(1717.5, 188)" data-id="F2" data-node="true" id="flowchart-F2-33" class="node default default flowchart-label"><rect height="36" width="141" y="-18" x="-70.5" ry="0" rx="0" style="fill:#d4e6ff;" class="basic label-container"></rect><g transform="translate(-63, -10.5)" style="" class="label"><rect></rect><foreignObject height="21" width="126"><div style="display: inline-block; white-space: nowrap;" xmlns="http://www.w3.org/1999/xhtml"><span class="nodeLabel">React: Fiber架构</span></div></foreignObject></g></g><g transform="translate(1905.5, 188)" data-id="G1" data-node="true" id="flowchart-G1-35" class="node default default flowchart-label"><rect height="36" width="135" y="-18" x="-67.5" ry="0" rx="0" style="fill:#e3f9ed;" class="basic label-container"></rect><g transform="translate(-60, -10.5)" style="" class="label"><rect></rect><foreignObject height="21" width="120"><div style="display: inline-block; white-space: nowrap;" xmlns="http://www.w3.org/1999/xhtml"><span class="nodeLabel">Vue: 官方全家桶</span></div></foreignObject></g></g><g transform="translate(2090, 188)" data-id="G2" data-node="true" id="flowchart-G2-37" class="node default default flowchart-label"><rect height="36" width="134" y="-18" x="-67" ry="0" rx="0" style="fill:#d4e6ff;" class="basic label-container"></rect><g transform="translate(-59.5, -10.5)" style="" class="label"><rect></rect><foreignObject height="21" width="119"><div style="display: inline-block; white-space: nowrap;" xmlns="http://www.w3.org/1999/xhtml"><span class="nodeLabel">React: 社区生态</span></div></foreignObject></g></g><g transform="translate(2284, 188)" data-id="H1" data-node="true" id="flowchart-H1-39" class="node default default flowchart-label"><rect height="36" width="154" y="-18" x="-77" ry="0" rx="0" style="fill:#e3f9ed;" class="basic label-container"></rect><g transform="translate(-69.5, -10.5)" style="" class="label"><rect></rect><foreignObject height="21" width="139"><div style="display: inline-block; white-space: nowrap;" xmlns="http://www.w3.org/1999/xhtml"><span class="nodeLabel">Vue: 渲染Watcher</span></div></foreignObject></g></g><g transform="translate(2478, 188)" data-id="H2" data-node="true" id="flowchart-H2-41" class="node default default flowchart-label"><rect height="36" width="134" y="-18" x="-67" ry="0" rx="0" style="fill:#d4e6ff;" class="basic label-container"></rect><g transform="translate(-59.5, -10.5)" style="" class="label"><rect></rect><foreignObject height="21" width="119"><div style="display: inline-block; white-space: nowrap;" xmlns="http://www.w3.org/1999/xhtml"><span class="nodeLabel">React: 并发模式</span></div></foreignObject></g></g></g></g></g></svg>